<svg width="69" height="86" viewBox="0 0 69 86" fill="none" xmlns="http://www.w3.org/2000/svg">
<path d="M44.0792 1.28965C43.3891 2.0204 41.7537 3.56786 40.4485 4.75711C36.0976 8.68307 35.2124 10.0872 35.0923 13.2968C35.0023 15.9046 35.6325 17.8819 37.2678 20.1314C37.7029 20.7332 38.063 21.1917 38.063 21.1344C38.063 21.0914 37.7929 20.5326 37.4628 19.9022C36.2026 17.495 35.8275 14.572 36.5176 12.4944C37.1628 10.5458 38.108 9.37083 41.3037 6.54815C41.9788 5.96069 42.804 5.14397 43.149 4.75711L43.7942 4.04069L43.7042 7.04964C43.6591 9.04128 43.5541 10.4168 43.3891 11.1332C42.834 13.5547 41.7537 15.4747 39.7883 17.581C38.363 19.1141 37.958 19.9881 38.348 20.7045C38.408 20.8335 38.5131 21.378 38.5731 21.8938L38.6631 22.8395L37.8079 23.3839C34.9123 25.218 32.8719 27.8687 32.0467 30.8777C31.8217 31.68 31.7316 32.4538 31.7316 33.7003C31.7166 36.3511 32.2267 38.5576 33.517 41.3373L34.1922 42.7988L33.9521 43.9451C33.7121 45.1057 33.637 48.5588 33.8471 49.4615C33.9221 49.8197 34.0121 49.8914 34.3872 49.8914H34.8373L34.9423 48.043C35.3324 41.452 37.6129 37.6263 42.969 34.5744C47.0949 32.2245 48.3101 30.9063 51.0557 25.8054C53.2162 21.7505 53.9063 20.6759 55.5716 18.6269L56.5168 17.4663L55.1816 18.0108C53.0211 18.8992 49.9155 19.7875 46.1647 20.5899C42.5639 21.3493 40.9286 21.7935 39.6833 22.3953C39.2932 22.5816 38.9332 22.7392 38.8881 22.7392C38.8431 22.7392 38.8281 22.166 38.8731 21.4496C38.9482 19.9165 38.9632 19.8878 41.2887 17.5666C42.5489 16.3201 43.074 15.661 43.5091 14.8443C44.4693 13.0246 44.5443 12.4944 44.4393 8.98397C44.3343 5.68845 44.5143 3.5392 45.1145 1.14637C45.2645 0.530254 45.3845 0.014431 45.3695 0.000102997C45.3545 -0.014225 44.7694 0.573238 44.0792 1.28965ZM50.9957 23.7565C47.9801 29.058 45.8796 31.3075 41.0636 34.4168C40.1184 35.0329 39.0082 35.8066 38.6031 36.1218C37.1178 37.2968 35.4224 39.6179 34.7773 41.3517C34.6273 41.7672 34.4622 42.0538 34.4172 41.9821C34.1772 41.6239 33.532 38.7009 33.382 37.3397C32.8869 32.8263 34.6423 28.8717 38.333 26.221C40.4485 24.6878 42.3689 23.9857 46.2397 23.3123C47.89 23.0257 50.5156 22.295 51.6408 21.8222C51.8959 21.7219 52.1059 21.6502 52.1359 21.6645C52.1509 21.6789 51.6408 22.6245 50.9957 23.7565Z" fill="#151618"/>
<path d="M17.681 4.86848C18.5758 8.09682 18.8442 12.3295 18.4117 16.2896C17.8749 21.2254 18.3223 22.7176 21.5136 26.7781C22.3786 27.8686 23.3479 29.289 23.6909 29.9203C24.6602 31.7999 25.1822 34.4687 25.1971 37.6827V39.0171L24.8392 38.8736C24.0041 38.5723 22.4979 38.4431 18.71 38.3714C16.5029 38.3283 14.2212 38.2279 13.6396 38.1705C13.0729 38.0988 12.5808 38.0701 12.5659 38.0844C12.5361 38.0988 12.8343 38.3283 13.237 38.601C14.9221 39.7632 16.6222 41.2697 18.5907 43.3502C19.7539 44.5698 21.1408 45.9185 21.6926 46.3346C24.0488 48.1281 26.748 49.1755 30.0139 49.5486C31.3561 49.7064 30.8192 49.2186 28.5525 48.2716C24.9436 46.7507 23.1391 45.5168 20.3653 42.6902C19.3214 41.6284 18.0538 40.4949 17.5617 40.1649L16.6669 39.591H18.4267C23.0496 39.591 25.6594 40.4519 27.8814 42.7045C28.985 43.8093 29.7753 45.1868 30.178 46.6646C30.2973 47.1381 30.4315 47.5542 30.4762 47.5972C30.6254 47.7264 30.5806 45.9042 30.4166 44.8998C30.0736 42.8193 28.3437 40.5236 26.3603 39.5192L25.4953 39.0888V36.7214C25.4953 32.0152 25.0629 30.3938 22.7961 26.7207C19.7986 21.8423 19.3065 19.9197 19.396 13.1617C19.4258 11.0669 19.4706 9.3451 19.4855 9.35946C19.4855 9.3738 19.7986 9.77555 20.1565 10.249C20.5294 10.7225 21.8566 12.143 23.1242 13.4056C26.1962 16.4618 27.3744 18.2266 28.1051 20.881C28.9253 23.7937 28.2542 27.8686 26.3156 31.7999C25.9576 32.5317 25.6892 33.1343 25.7041 33.1343C25.7339 33.1343 25.9875 32.79 26.2857 32.3595C28.627 28.9734 29.8052 25.1568 29.6262 21.5841C29.5218 19.6327 29.1192 18.1118 28.2691 16.4187C27.4042 14.6683 26.405 13.4343 23.5119 10.5504C21.2601 8.29769 19.7092 6.63331 18.0837 4.79675L17.4573 4.07934L17.681 4.86848Z" fill="#151618"/>
<path d="M44.5727 40.0358C41.1472 40.7347 38.8185 43.6444 38.8034 47.2102C38.8034 47.9234 38.7734 47.9805 38.3377 48.1231C37.5565 48.3798 38.1274 48.5082 40.5462 48.608C44.0017 48.7507 46.1201 48.3656 47.923 47.253C48.4188 46.9535 49.6658 45.9979 50.7024 45.1278C52.8058 43.3877 53.8875 42.646 55.6604 41.7474L56.8473 41.1483L55.4049 41.0485C54.6237 41.0057 53.2265 40.8203 52.295 40.6634C51.3635 40.5065 49.8911 40.2497 49.0198 40.1071C47.1868 39.7933 45.8647 39.7648 44.5727 40.0358ZM49.5306 41.8187C50.2667 41.9899 51.4086 42.1753 52.0396 42.2181L53.2114 42.3179L51.5738 43.5731C49.0799 45.4844 47.4272 46.3544 45.3088 46.8679C44.2271 47.1389 39.3894 47.8378 39.2842 47.738C39.149 47.6096 39.5847 46.2831 40.1105 45.2419C41.027 43.4305 42.7548 42.1325 44.9332 41.6048C46.045 41.3337 47.7878 41.4193 49.5306 41.8187Z" fill="#151618"/>
<path d="M11.0565 55.6404C10.876 63.3893 11.2971 66.0107 13.3276 69.9139C14.3955 71.9592 16.1251 74.3501 17.3584 75.4735C17.6592 75.7472 17.8999 76.0065 17.8999 76.0497C17.8999 76.1073 14.1548 76.1217 9.59753 76.0929C5.02522 76.0641 1.12973 76.0929 0.9342 76.1361C0.753713 76.1793 0.513065 76.3809 0.422822 76.5682C0.287458 76.8707 0.302498 76.9715 0.528106 77.2163C0.798835 77.5044 0.964283 77.5044 34.4745 77.5044C57.4113 77.5044 68.2405 77.4612 68.4511 77.3604C68.8421 77.1587 68.8421 76.4098 68.4511 76.2081C68.2555 76.1217 65.1572 76.0641 59.4117 76.0641H50.6732L51.5906 75.0126C54.2077 72.06 55.9073 68.8193 57.0203 64.6856C57.3361 63.5477 57.3662 63.058 57.4113 57.2968L57.4865 51.1466H34.3241H11.1617L11.0565 55.6404Z" fill="#151618"/>
<path d="M4.81415 79.4547C9.89634 81.7458 17.7301 83.6127 25.0377 84.2774C26.3308 84.4047 26.9172 84.5037 26.6916 84.5603C26.3759 84.6451 26.3608 84.6593 26.6164 84.6734C26.7818 84.6876 27.8043 84.7583 28.8719 84.8431C34.375 85.225 46.1633 84.9987 45.8325 84.5037C45.7874 84.433 45.8025 84.4047 45.8927 84.4471C45.9679 84.4896 46.2385 84.4754 46.4791 84.4047C46.9001 84.2916 46.9001 84.2916 46.3137 84.2633C45.9528 84.2491 46.7197 84.0794 48.1932 83.839C52.7792 83.1036 56.5532 82.2125 59.6507 81.1377C61.4249 80.5154 64.8682 79.1011 65.1088 78.8748C65.1839 78.8041 53.4408 78.7475 34.2848 78.7617L3.31055 78.7758L4.81415 79.4547Z" fill="#151618"/>
</svg>
